<svg xmlns="http://www.w3.org/2000/svg" version="1.1" xmlns:xlink="http://www.w3.org/1999/xlink" width="512" height="512" x="0" y="0" viewBox="0 0 100 100" style="enable-background:new 0 0 512 512" xml:space="preserve" class=""><g><path d="M75 52H33.39c-1.1 0-2-.9-2-2s.9-2 2-2H75c1.1 0 2 .9 2 2s-.9 2-2 2z" fill="#000000" opacity="1" data-original="#000000" class=""></path><circle cx="15.23" cy="50" r="2" fill-rule="evenodd" clip-rule="evenodd" fill="#000000" opacity="1" data-original="#000000" class=""></circle><circle cx="24.31" cy="50" r="2" fill-rule="evenodd" clip-rule="evenodd" fill="#000000" opacity="1" data-original="#000000" class=""></circle><path d="M61.72 67.62a2.008 2.008 0 0 1-1.52-3.3L72.38 50 60.2 35.67c-.72-.84-.61-2.1.23-2.82.84-.71 2.1-.61 2.82.23L76.52 48.7c.64.75.64 1.84 0 2.59L63.24 66.92c-.39.47-.96.7-1.52.7z" fill="#000000" opacity="1" data-original="#000000" class=""></path><path d="M74.22 67.62a2.008 2.008 0 0 1-1.52-3.3L84.88 50 72.7 35.67c-.72-.84-.61-2.1.23-2.82.84-.71 2.1-.61 2.82.23L89.02 48.7c.64.75.64 1.84 0 2.59L75.74 66.92c-.39.47-.96.7-1.52.7z" fill="#000000" opacity="1" data-original="#000000" class=""></path></g></svg>